<svg width="657.9px" height="121.4px" xmlns="http://www.w3.org/2000/svg" viewBox="-78.96251220703124 14.297509765625001 657.9250244140625 121.40498046875" style="background: rgba(0, 0, 0, 0)" preserveAspectRatio="xMidYMid"><defs>
  <filter id="editing-scratch" x="-100%" y="-100%" width="300%" height="300%">
    <!-- COLOR -->
    <feFlood flood-color="#ddd" flood-opacity="0.75" result="COLOR-blu"></feFlood>
    <feFlood flood-color="#666" flood-opacity="0.4" result="COLOR-red"></feFlood>
    <!-- COLOR END -->

    <!-- Texture -->
    <feTurbulence baseFrequency=".05" type="fractalNoise" numOctaves="3" seed="0" result="Texture_10"></feTurbulence>
    <feColorMatrix type="matrix" values="0 0 0 0 0,
    0 0 0 0 0,
    0 0 0 0 0,
    0 0 0 -2.1 1.1" in="Texture_10" result="Texture_20"></feColorMatrix>

    <feColorMatrix result="Texture_30" type="matrix" values="0 0 0 0 0,
    0 0 0 0 0,
    0 0 0 0 0,
    0 0 0 -1.7 1.8" in="Texture_10"></feColorMatrix>
    <!-- Texture -->

    <!-- FILL -->
    <feOffset dx="-3" dy="4" in="SourceAlpha" result="FILL_10"></feOffset>
    <feDisplacementMap scale="17" in="FILL_10" in2="Texture_10" result="FILL_20"></feDisplacementMap>
    <feComposite operator="in" in="Texture_30" in2="FILL_20" result="FILL_40"></feComposite>
    <feComposite operator="in" in="COLOR-blu" in2="FILL_40" result="FILL_50"></feComposite>
    <!-- FILL END-->

    <!-- OUTLINE -->
    <feMorphology operator="dilate" radius="3" in="SourceGraphic" result="OUTLINE_10"></feMorphology>
    <feComposite operator="out" in="OUTLINE_10" in2="SourceGraphic" result="OUTLINE_20"></feComposite>
    <feDisplacementMap scale="7" in="OUTLINE_20" in2="Texture_10" result="OUTLINE_30"></feDisplacementMap>
    <feComposite operator="arithmetic" k2="-1" k3="1" in="Texture_20" in2="OUTLINE_30" result="OUTLINE_40"></feComposite>
    <!-- OUTLINE END-->

    <!-- BEVEL OUTLINE -->
    <feConvolveMatrix order="8,8" divisor="1" kernelMatrix="1 0 0 0 0 0 0 0 0 1 0 0 0 0 0 0 0 0 1 0 0 0 0 0 0 0 0 1 0 0 0 0 0 0 0 0 1 0 0 0 0 0 0 0 0 1 0 0 0 0 0 0 0 0 1 0 0 0 0 0 0 0 0 1 " in="SourceGraphic" result="BEVEL_10"></feConvolveMatrix>
    <feMorphology operator="dilate" radius="2" in="BEVEL_10" result="BEVEL_20"></feMorphology>
    <feComposite operator="out" in="BEVEL_20" in2="BEVEL_10" result="BEVEL_30"></feComposite>
    <feDisplacementMap scale="7" in="BEVEL_30" in2="Texture_10" result="BEVEL_40"></feDisplacementMap>
    <feComposite operator="arithmetic" k2="-1" k3="1" in="Texture_20" in2="BEVEL_40" result="BEVEL_50"></feComposite>
    <feOffset dx="-7" dy="-7" in="BEVEL_50" result="BEVEL_60"></feOffset>
    <feComposite operator="out" in="BEVEL_60" in2="OUTLINE_10" result="BEVEL_70"></feComposite>
    <!-- BEVEL OUTLINE END -->

    <!-- BEVEL FILL -->
    <feOffset dx="-9" dy="-9" in="BEVEL_10" result="BEVEL-FILL_10"></feOffset>
    <feComposite operator="out" in="BEVEL-FILL_10" in2="OUTLINE_10" result="BEVEL-FILL_20"></feComposite>
    <feDisplacementMap scale="17" in="BEVEL-FILL_20" in2="Texture_10" result="BEVEL-FILL_30"></feDisplacementMap>
    <feComposite operator="in" in="COLOR-red" in2="BEVEL-FILL_30" result="BEVEL-FILL_50"></feComposite> <!-- -->
    <!-- BEVEL FILL END-->

    <feMerge result="merge2">
     <feMergeNode in="BEVEL-FILL_50"></feMergeNode>
     <feMergeNode in="BEVEL_70"></feMergeNode>
     <feMergeNode in="FILL_50"></feMergeNode>
      <feMergeNode in="OUTLINE_40"></feMergeNode>
    </feMerge>
  </filter>
</defs>
<g filter="url(#editing-scratch)"><g transform="matrix(1.3,0,0,1.4,-44,164.2)"><path d="M 0.9 -42.3 L -13 -42.3 L -4.9 -84.6 L 9.2 -84.6 L 0.9 -42.3 Z M 56.7 -41.1 L 56.7 -41.1 L 56.7 -41.1 Q 48.9 -41.1 48.9 -47.1 L 48.9 -47.1 L 48.9 -47.1 Q 48.9 -49.7 50 -54.8 L 50 -54.8 L 50 -54.8 Q 51.2 -59.9 51.5 -61.9 L 51.5 -61.9 L 51.5 -61.9 Q 52.4 -66.6 52.4 -68.1 L 52.4 -68.1 L 52.4 -68.1 Q 52.4 -71.3 50 -71.3 L 50 -71.3 L 50 -71.3 Q 48.4 -71.3 46.9 -69.1 L 46.9 -69.1 L 46.9 -69.1 Q 45.3 -66.9 44.6 -62.5 L 44.6 -62.5 L 40.7 -42.3 L 28.2 -41.1 L 31.6 -58.5 L 31.6 -58.5 Q 32.2 -61.4 32.7 -64.6 L 32.7 -64.6 L 32.7 -64.6 Q 33.2 -67.9 33.2 -68.4 L 33.2 -68.4 L 33.2 -68.4 Q 33.2 -71.3 31.1 -71.3 L 31.1 -71.3 L 31.1 -71.3 Q 29.6 -71.3 28 -69.2 L 28 -69.2 L 28 -69.2 Q 26.4 -67 25.5 -62.5 L 25.5 -62.5 L 21.6 -42.3 L 9 -41.1 L 15.7 -75 L 26.1 -76.3 L 25 -69.8 L 25 -69.8 Q 26.7 -73.3 29.8 -74.8 L 29.8 -74.8 L 29.8 -74.8 Q 32.8 -76.3 37.6 -76.3 L 37.6 -76.3 L 37.6 -76.3 Q 40.4 -76.3 42.2 -74.9 L 42.2 -74.9 L 42.2 -74.9 Q 44 -73.6 44.6 -71.4 L 44.6 -71.4 L 44.6 -71.4 Q 45.6 -73.6 48.4 -75 L 48.4 -75 L 48.4 -75 Q 51.2 -76.3 54.6 -76.3 L 54.6 -76.3 L 54.6 -76.3 Q 58.1 -76.3 59.8 -75.5 L 59.8 -75.5 L 59.8 -75.5 Q 61.5 -74.8 62.5 -73.6 L 62.5 -73.6 L 62.5 -73.6 Q 64.2 -71.3 64.2 -67.2 L 64.2 -67.2 L 64.2 -67.2 Q 64.2 -63.2 62.5 -54.8 L 62.5 -54.8 L 62.5 -54.8 Q 61.6 -50.7 61.6 -49.2 L 61.6 -49.2 L 61.6 -49.2 Q 61.6 -47.7 62.4 -46.8 L 62.4 -46.8 L 62.4 -46.8 Q 63.3 -45.9 64.6 -45.8 L 64.6 -45.8 L 64.6 -45.8 Q 64 -43.6 61.7 -42.3 L 61.7 -42.3 L 61.7 -42.3 Q 59.5 -41.1 56.7 -41.1 Z M 72.3 -44.3 L 72.3 -44.3 L 72.3 -44.3 Q 70.8 -45.9 70.1 -48.6 L 70.1 -48.6 L 70.1 -48.6 Q 69.5 -51.2 69.5 -55.5 L 69.5 -55.5 L 69.5 -55.5 Q 69.5 -59.8 70.9 -63.7 L 70.9 -63.7 L 70.9 -63.7 Q 72.4 -67.6 75.1 -70.4 L 75.1 -70.4 L 75.1 -70.4 Q 80.6 -76.3 89.7 -76.3 L 89.7 -76.3 L 89.7 -76.3 Q 92.9 -76.3 95.3 -75.2 L 95.3 -75.2 L 106.3 -76.3 L 101.5 -51.3 L 101.5 -51.3 Q 101.3 -50.5 101.3 -49.1 L 101.3 -49.1 L 101.3 -49.1 Q 101.3 -47.7 102.2 -46.8 L 102.2 -46.8 L 102.2 -46.8 Q 103.1 -45.9 104.3 -45.8 L 104.3 -45.8 L 104.3 -45.8 Q 103.7 -43.6 101.4 -42.3 L 101.4 -42.3 L 101.4 -42.3 Q 99 -41.1 96.4 -41.1 L 96.4 -41.1 L 96.4 -41.1 Q 93.8 -41.1 92 -42.1 L 92 -42.1 L 92 -42.1 Q 90.3 -43 89.7 -44.7 L 89.7 -44.7 L 89.7 -44.7 Q 88.7 -43.1 86.5 -42.1 L 86.5 -42.1 L 86.5 -42.1 Q 84.4 -41.1 81.5 -41.1 L 81.5 -41.1 L 81.5 -41.1 Q 78.5 -41.1 76.2 -41.8 L 76.2 -41.8 L 76.2 -41.8 Q 73.8 -42.6 72.3 -44.3 Z M 85.8 -70.2 L 85.8 -70.2 L 85.8 -70.2 Q 85.1 -69.1 84.4 -67.1 L 84.4 -67.1 L 84.4 -67.1 Q 83.8 -65.2 82.7 -60 L 82.7 -60 L 82.7 -60 Q 81.7 -54.8 81.7 -51 L 81.7 -51 L 81.7 -51 Q 81.7 -47.3 82.3 -46.2 L 82.3 -46.2 L 82.3 -46.2 Q 82.8 -45.2 83.9 -45.2 L 83.9 -45.2 L 83.9 -45.2 Q 85.9 -45.2 87.4 -47.1 L 87.4 -47.1 L 87.4 -47.1 Q 88.9 -49.1 89.5 -52.5 L 89.5 -52.5 L 92.9 -71.3 L 92.9 -71.3 Q 91.5 -72.4 90 -72.4 L 90 -72.4 L 90 -72.4 Q 88.4 -72.4 87.5 -71.9 L 87.5 -71.9 L 87.5 -71.9 Q 86.5 -71.4 85.8 -70.2 Z M 114 -69.1 L 114 -69.1 L 114 -69.1 Q 116.2 -72.2 119.5 -74.2 L 119.5 -74.2 L 119.5 -74.2 Q 122.8 -76.3 126.8 -76.3 L 126.8 -76.3 L 126.8 -76.3 Q 130.8 -76.3 132.8 -75 L 132.8 -75 L 145.3 -76.3 L 140.9 -51.7 L 140.9 -51.7 Q 138.7 -39.1 134 -34.2 L 134 -34.2 L 134 -34.2 Q 129.4 -29.5 120.6 -29.5 L 120.6 -29.5 L 120.6 -29.5 Q 113.9 -29.5 110 -31.7 L 110 -31.7 L 110 -31.7 Q 106.2 -33.8 106.2 -37.3 L 106.2 -37.3 L 106.2 -37.3 Q 106.2 -39.9 108.2 -41.4 L 108.2 -41.4 L 108.2 -41.4 Q 110.2 -42.9 113.2 -42.9 L 113.2 -42.9 L 113.2 -42.9 Q 115.9 -42.9 118 -41.7 L 118 -41.7 L 118 -41.7 Q 119.2 -41.1 119.8 -40.2 L 119.8 -40.2 L 119.8 -40.2 Q 118.3 -38.9 118.3 -36.8 L 118.3 -36.8 L 118.3 -36.8 Q 118.3 -34 120.8 -34 L 120.8 -34 L 120.8 -34 Q 125.1 -34 127.6 -44.1 L 127.6 -44.1 L 127.6 -44.1 Q 128.3 -46.9 128.8 -49.6 L 128.8 -49.6 L 128.8 -49.6 Q 126 -46.1 119.4 -46.1 L 119.4 -46.1 L 119.4 -46.1 Q 114.9 -46.1 112.3 -48.3 L 112.3 -48.3 L 112.3 -48.3 Q 109.6 -50.5 109.6 -55.6 L 109.6 -55.6 L 109.6 -55.6 Q 109.6 -58.8 110.7 -62.4 L 110.7 -62.4 L 110.7 -62.4 Q 111.8 -66 114 -69.1 Z M 122.3 -55.4 L 122.3 -55.4 L 122.3 -55.4 Q 122.3 -51 124.6 -51 L 124.6 -51 L 124.6 -51 Q 126.1 -51 127.6 -52.7 L 127.6 -52.7 L 127.6 -52.7 Q 128.7 -54.1 129.2 -56 L 129.2 -56 L 132.4 -72.5 L 132.4 -72.5 Q 132.1 -72.6 131.8 -72.7 L 131.8 -72.7 L 131.8 -72.7 Q 131.2 -72.9 130.3 -72.9 L 130.3 -72.9 L 130.3 -72.9 Q 126.4 -72.9 124.1 -66.5 L 124.1 -66.5 L 124.1 -66.5 Q 122.3 -61.5 122.3 -55.4 Z M 173.7 -53.2 L 173.7 -53.2 L 173.7 -53.2 Q 175.3 -52.1 175.3 -49.7 L 175.3 -49.7 L 175.3 -49.7 Q 175.3 -47.3 174.1 -45.7 L 174.1 -45.7 L 174.1 -45.7 Q 172.9 -44.2 170.9 -43.2 L 170.9 -43.2 L 170.9 -43.2 Q 166.8 -41.1 162.4 -41.1 L 162.4 -41.1 L 162.4 -41.1 Q 158 -41.1 155.4 -42 L 155.4 -42 L 155.4 -42 Q 152.8 -43 151.1 -44.8 L 151.1 -44.8 L 151.1 -44.8 Q 147.7 -48.2 147.7 -54.4 L 147.7 -54.4 L 147.7 -54.4 Q 147.7 -64 152.9 -69.9 L 152.9 -69.9 L 152.9 -69.9 Q 158.5 -76.3 168.3 -76.3 L 168.3 -76.3 L 168.3 -76.3 Q 174.4 -76.3 177.4 -73.7 L 177.4 -73.7 L 177.4 -73.7 Q 179.7 -71.8 179.7 -68.6 L 179.7 -68.6 L 179.7 -68.6 Q 179.7 -57.4 160.2 -57.4 L 160.2 -57.4 L 160.2 -57.4 Q 160 -55.7 160 -54.3 L 160 -54.3 L 160 -54.3 Q 160 -51.4 161.3 -50.2 L 161.3 -50.2 L 161.3 -50.2 Q 162.6 -49.1 165 -49.1 L 165 -49.1 L 165 -49.1 Q 167.4 -49.1 170 -50.2 L 170 -50.2 L 170 -50.2 Q 172.6 -51.4 173.7 -53.2 Z M 160.7 -60.1 L 160.7 -60.1 L 160.7 -60.1 Q 165.2 -60.1 167.8 -63 L 167.8 -63 L 167.8 -63 Q 170.4 -65.6 170.4 -69.9 L 170.4 -69.9 L 170.4 -69.9 Q 170.4 -71.4 169.9 -72.2 L 169.9 -72.2 L 169.9 -72.2 Q 169.4 -73 168.3 -73 L 168.3 -73 L 168.3 -73 Q 167.2 -73 166.3 -72.6 L 166.3 -72.6 L 166.3 -72.6 Q 165.3 -72.2 164.4 -70.8 L 164.4 -70.8 L 164.4 -70.8 Q 162 -67.6 160.7 -60.1 Z M 201 -64.8 L 201 -64.8 L 201 -64.8 Q 201.9 -67.2 201.9 -69.2 L 201.9 -69.2 L 201.9 -69.2 Q 201.9 -73 198.8 -73 L 198.8 -73 L 198.8 -73 Q 197.2 -73 195.9 -71.6 L 195.9 -71.6 L 195.9 -71.6 Q 194.6 -70.1 194.6 -68.3 L 194.6 -68.3 L 194.6 -68.3 Q 194.6 -67 195.6 -66 L 195.6 -66 L 195.6 -66 Q 197.1 -64.6 200.8 -62.3 L 200.8 -62.3 L 200.8 -62.3 Q 204.6 -60 206.1 -58.1 L 206.1 -58.1 L 206.1 -58.1 Q 207.5 -56.2 207.5 -53.6 L 207.5 -53.6 L 207.5 -53.6 Q 207.5 -51 206.3 -48.7 L 206.3 -48.7 L 206.3 -48.7 Q 205 -46.3 202.8 -44.6 L 202.8 -44.6 L 202.8 -44.6 Q 198 -41.1 190.3 -41.1 L 190.3 -41.1 L 190.3 -41.1 Q 186.1 -41.1 182.9 -43.2 L 182.9 -43.2 L 182.9 -43.2 Q 179.7 -45.4 179.7 -47.8 L 179.7 -47.8 L 179.7 -47.8 Q 179.7 -50.3 181.6 -51.8 L 181.6 -51.8 L 181.6 -51.8 Q 183.4 -53.3 186.1 -53.3 L 186.1 -53.3 L 186.1 -53.3 Q 188.8 -53.3 190.4 -52.3 L 190.4 -52.3 L 190.4 -52.3 Q 189.6 -50.2 189.6 -48.7 L 189.6 -48.7 L 189.6 -48.7 Q 189.6 -44.5 193.2 -44.5 L 193.2 -44.5 L 193.2 -44.5 Q 194.7 -44.5 195.7 -45.5 L 195.7 -45.5 L 195.7 -45.5 Q 196.8 -46.4 196.8 -48.1 L 196.8 -48.1 L 196.8 -48.1 Q 196.8 -51.4 191.2 -54.8 L 191.2 -54.8 L 191.2 -54.8 Q 186.8 -57.8 185.7 -58.9 L 185.7 -58.9 L 185.7 -58.9 Q 184 -61 184 -63.5 L 184 -63.5 L 184 -63.5 Q 184 -66.1 185.2 -68.5 L 185.2 -68.5 L 185.2 -68.5 Q 186.4 -71 188.7 -72.7 L 188.7 -72.7 L 188.7 -72.7 Q 193.4 -76.3 201.5 -76.3 L 201.5 -76.3 L 201.5 -76.3 Q 205.6 -76.3 208.1 -74.6 L 208.1 -74.6 L 208.1 -74.6 Q 210.6 -72.9 210.6 -70.1 L 210.6 -70.1 L 210.6 -70.1 Q 210.6 -67.3 208.9 -65.7 L 208.9 -65.7 L 208.9 -65.7 Q 207.2 -64.1 204.1 -64.1 L 204.1 -64.1 L 204.1 -64.1 Q 202 -64.1 201 -64.8 Z M 252 -63 L 265 -64.1 L 265 -64.1 Q 260.4 -54 260.4 -42.3 L 260.4 -42.3 L 260.4 -42.3 Q 258.6 -41.1 256.1 -41.1 L 256.1 -41.1 L 256.1 -41.1 Q 253.6 -41.1 252 -42.2 L 252 -42.2 L 252 -42.2 Q 250.4 -43.4 250.1 -44.6 L 250.1 -44.6 L 250.1 -44.6 Q 248.5 -43 245.9 -42 L 245.9 -42 L 245.9 -42 Q 243.3 -41.1 240.5 -41.1 L 240.5 -41.1 L 240.5 -41.1 Q 237.8 -41.1 235.4 -42 L 235.4 -42 L 235.4 -42 Q 233 -42.9 231.1 -44.8 L 231.1 -44.8 L 231.1 -44.8 Q 227 -49.2 227 -57.4 L 227 -57.4 L 227 -57.4 Q 227 -70.2 233.9 -77.9 L 233.9 -77.9 L 233.9 -77.9 Q 240.9 -85.9 253.4 -85.9 L 253.4 -85.9 L 253.4 -85.9 Q 262 -85.9 265.1 -81.4 L 265.1 -81.4 L 265.1 -81.4 Q 266.1 -80 266.1 -78.3 L 266.1 -78.3 L 266.1 -78.3 Q 266.1 -76.6 265.3 -75.1 L 265.3 -75.1 L 265.3 -75.1 Q 264.6 -73.7 263.4 -72.6 L 263.4 -72.6 L 263.4 -72.6 Q 260.7 -70 257.3 -70 L 257.3 -70 L 257.3 -70 Q 256 -70 254.7 -70.4 L 254.7 -70.4 L 254.7 -70.4 Q 254.9 -72.4 254.9 -74.6 L 254.9 -74.6 L 254.9 -74.6 Q 254.9 -76.8 254.8 -77.9 L 254.8 -77.9 L 254.8 -77.9 Q 254.6 -78.9 254.2 -79.7 L 254.2 -79.7 L 254.2 -79.7 Q 253.4 -81.4 251.6 -81.4 L 251.6 -81.4 L 251.6 -81.4 Q 249.7 -81.4 247.7 -79.5 L 247.7 -79.5 L 247.7 -79.5 Q 245.7 -77.5 244.1 -74.3 L 244.1 -74.3 L 244.1 -74.3 Q 240.6 -67.2 240.6 -58.5 L 240.6 -58.5 L 240.6 -58.5 Q 240.6 -54.6 242.1 -51.8 L 242.1 -51.8 L 242.1 -51.8 Q 243.8 -48.7 246.7 -48.7 L 246.7 -48.7 L 246.7 -48.7 Q 247.8 -48.7 248.7 -49.2 L 248.7 -49.2 L 248.7 -49.2 Q 249.6 -49.7 250 -50.1 L 250 -50.1 L 252 -63 Z M 270.9 -44.3 L 270.9 -44.3 L 270.9 -44.3 Q 269.4 -45.9 268.7 -48.6 L 268.7 -48.6 L 268.7 -48.6 Q 268 -51.2 268 -55.5 L 268 -55.5 L 268 -55.5 Q 268 -59.8 269.5 -63.7 L 269.5 -63.7 L 269.5 -63.7 Q 271 -67.6 273.7 -70.4 L 273.7 -70.4 L 273.7 -70.4 Q 279.2 -76.3 288.3 -76.3 L 288.3 -76.3 L 288.3 -76.3 Q 291.5 -76.3 293.9 -75.2 L 293.9 -75.2 L 304.8 -76.3 L 300.1 -51.3 L 300.1 -51.3 Q 299.9 -50.5 299.9 -49.1 L 299.9 -49.1 L 299.9 -49.1 Q 299.9 -47.7 300.8 -46.8 L 300.8 -46.8 L 300.8 -46.8 Q 301.6 -45.9 302.9 -45.8 L 302.9 -45.8 L 302.9 -45.8 Q 302.3 -43.6 300 -42.3 L 300 -42.3 L 300 -42.3 Q 297.6 -41.1 295 -41.1 L 295 -41.1 L 295 -41.1 Q 292.4 -41.1 290.6 -42.1 L 290.6 -42.1 L 290.6 -42.1 Q 288.8 -43 288.3 -44.7 L 288.3 -44.7 L 288.3 -44.7 Q 287.3 -43.1 285.1 -42.1 L 285.1 -42.1 L 285.1 -42.1 Q 283 -41.1 280 -41.1 L 280 -41.1 L 280 -41.1 Q 277.1 -41.1 274.8 -41.8 L 274.8 -41.8 L 274.8 -41.8 Q 272.4 -42.6 270.9 -44.3 Z M 284.4 -70.2 L 284.4 -70.2 L 284.4 -70.2 Q 283.7 -69.1 283 -67.1 L 283 -67.1 L 283 -67.1 Q 282.4 -65.2 281.3 -60 L 281.3 -60 L 281.3 -60 Q 280.3 -54.8 280.3 -51 L 280.3 -51 L 280.3 -51 Q 280.3 -47.3 280.8 -46.2 L 280.8 -46.2 L 280.8 -46.2 Q 281.4 -45.2 282.4 -45.2 L 282.4 -45.2 L 282.4 -45.2 Q 284.5 -45.2 286 -47.1 L 286 -47.1 L 286 -47.1 Q 287.5 -49.1 288.1 -52.5 L 288.1 -52.5 L 291.5 -71.3 L 291.5 -71.3 Q 290.1 -72.4 288.6 -72.4 L 288.6 -72.4 L 288.6 -72.4 Q 287 -72.4 286.1 -71.9 L 286.1 -71.9 L 286.1 -71.9 Q 285.1 -71.4 284.4 -70.2 Z M 323.6 -45.9 L 323.6 -45.9 L 323.6 -45.9 Q 321.6 -41.1 315.3 -41.1 L 315.3 -41.1 L 315.3 -41.1 Q 312.1 -41.1 310 -43.3 L 310 -43.3 L 310 -43.3 Q 308.4 -45.2 308.4 -47.3 L 308.4 -47.3 L 308.4 -47.3 Q 308.4 -52.1 310.6 -62.6 L 310.6 -62.6 L 315.3 -87.1 L 328.3 -88.4 L 322.1 -56 L 322.1 -56 Q 321 -51.3 321 -49.6 L 321 -49.6 L 321 -49.6 Q 321 -46 323.6 -45.9 Z M 344.3 -45.9 L 344.3 -45.9 L 344.3 -45.9 Q 342.4 -41.1 336 -41.1 L 336 -41.1 L 336 -41.1 Q 332.8 -41.1 330.8 -43.3 L 330.8 -43.3 L 330.8 -43.3 Q 329.1 -45.2 329.1 -47.3 L 329.1 -47.3 L 329.1 -47.3 Q 329.1 -52.1 331.3 -62.6 L 331.3 -62.6 L 336 -87.1 L 349 -88.4 L 342.8 -56 L 342.8 -56 Q 341.7 -51.3 341.7 -49.6 L 341.7 -49.6 L 341.7 -49.6 Q 341.7 -46 344.3 -45.9 Z M 375.7 -53.2 L 375.7 -53.2 L 375.7 -53.2 Q 377.3 -52.1 377.3 -49.7 L 377.3 -49.7 L 377.3 -49.7 Q 377.3 -47.3 376.1 -45.7 L 376.1 -45.7 L 376.1 -45.7 Q 374.9 -44.2 372.9 -43.2 L 372.9 -43.2 L 372.9 -43.2 Q 368.8 -41.1 364.4 -41.1 L 364.4 -41.1 L 364.4 -41.1 Q 360 -41.1 357.4 -42 L 357.4 -42 L 357.4 -42 Q 354.8 -43 353 -44.8 L 353 -44.8 L 353 -44.8 Q 349.6 -48.2 349.6 -54.4 L 349.6 -54.4 L 349.6 -54.4 Q 349.6 -64 354.9 -69.9 L 354.9 -69.9 L 354.9 -69.9 Q 360.5 -76.3 370.3 -76.3 L 370.3 -76.3 L 370.3 -76.3 Q 376.4 -76.3 379.4 -73.7 L 379.4 -73.7 L 379.4 -73.7 Q 381.6 -71.8 381.6 -68.6 L 381.6 -68.6 L 381.6 -68.6 Q 381.6 -57.4 362.2 -57.4 L 362.2 -57.4 L 362.2 -57.4 Q 361.9 -55.7 361.9 -54.3 L 361.9 -54.3 L 361.9 -54.3 Q 361.9 -51.4 363.2 -50.2 L 363.2 -50.2 L 363.2 -50.2 Q 364.6 -49.1 367 -49.1 L 367 -49.1 L 367 -49.1 Q 369.4 -49.1 372 -50.2 L 372 -50.2 L 372 -50.2 Q 374.6 -51.4 375.7 -53.2 Z M 362.6 -60.1 L 362.6 -60.1 L 362.6 -60.1 Q 367.2 -60.1 369.8 -63 L 369.8 -63 L 369.8 -63 Q 372.4 -65.6 372.4 -69.9 L 372.4 -69.9 L 372.4 -69.9 Q 372.4 -71.4 371.9 -72.2 L 371.9 -72.2 L 371.9 -72.2 Q 371.3 -73 370.3 -73 L 370.3 -73 L 370.3 -73 Q 369.2 -73 368.2 -72.6 L 368.2 -72.6 L 368.2 -72.6 Q 367.3 -72.2 366.4 -70.8 L 366.4 -70.8 L 366.4 -70.8 Q 364 -67.6 362.6 -60.1 Z M 403.9 -60.3 L 403.9 -60.3 L 403.9 -60.3 Q 406.2 -64.4 406.2 -68.6 L 406.2 -68.6 L 406.2 -68.6 Q 406.2 -71.3 404.2 -71.3 L 404.2 -71.3 L 404.2 -71.3 Q 402.6 -71.3 401 -68.7 L 401 -68.7 L 401 -68.7 Q 399.4 -66.1 398.9 -62.7 L 398.9 -62.7 L 395.5 -42.3 L 382.3 -41.1 L 388.8 -75 L 399.4 -76.3 L 398.2 -69.8 L 398.2 -69.8 Q 401.4 -76.3 408.4 -76.3 L 408.4 -76.3 L 408.4 -76.3 Q 412.1 -76.3 414.1 -74.3 L 414.1 -74.3 L 414.1 -74.3 Q 416.1 -72.4 416.1 -68.5 L 416.1 -68.5 L 416.1 -68.5 Q 416.1 -64.6 413.6 -62.1 L 413.6 -62.1 L 413.6 -62.1 Q 411 -59.6 406.5 -59.6 L 406.5 -59.6 L 406.5 -59.6 Q 404.6 -59.6 403.9 -60.3 Z M 437.5 -49.6 L 437.5 -49.6 L 437.5 -49.6 Q 434.2 -46.1 428.1 -46.1 L 428.1 -46.1 L 428.1 -46.1 Q 420.5 -46.1 418.9 -51.7 L 418.9 -51.7 L 418.9 -51.7 Q 418.4 -53.4 418.4 -55.2 L 418.4 -55.2 L 418.4 -55.2 Q 418.4 -57.1 418.8 -59 L 418.8 -59 L 421.8 -75 L 434.8 -76.3 L 431.2 -57.6 L 431.2 -57.6 Q 431.1 -56.8 430.9 -55.9 L 430.9 -55.9 L 430.9 -55.9 Q 430.7 -55 430.7 -54.1 L 430.7 -54.1 L 430.7 -54.1 Q 430.7 -53.2 431.1 -52.6 L 431.1 -52.6 L 431.1 -52.6 Q 431.4 -51.9 431.8 -51.6 L 431.8 -51.6 L 431.8 -51.6 Q 432.6 -51 434 -51 L 434 -51 L 434 -51 Q 435.3 -51 436.5 -52.7 L 436.5 -52.7 L 436.5 -52.7 Q 437.7 -54.4 438.3 -57.3 L 438.3 -57.3 L 441.8 -75 L 454.4 -76.3 L 449.6 -51.1 L 449.6 -51.1 Q 447.2 -38.8 442.4 -34 L 442.4 -34 L 442.4 -34 Q 439.9 -31.5 436.7 -30.5 L 436.7 -30.5 L 436.7 -30.5 Q 433.4 -29.5 429.3 -29.5 L 429.3 -29.5 L 429.3 -29.5 Q 422.5 -29.5 418.7 -31.6 L 418.7 -31.6 L 418.7 -31.6 Q 414.9 -33.7 414.9 -37.2 L 414.9 -37.2 L 414.9 -37.2 Q 414.9 -39.8 416.8 -41.4 L 416.8 -41.4 L 416.8 -41.4 Q 418.8 -42.9 421.9 -42.9 L 421.9 -42.9 L 421.9 -42.9 Q 424.6 -42.9 426.6 -41.7 L 426.6 -41.7 L 426.6 -41.7 Q 427.9 -41 428.4 -40.1 L 428.4 -40.1 L 428.4 -40.1 Q 427 -38.8 427 -36.7 L 427 -36.7 L 427 -36.7 Q 427 -33.9 429.5 -33.9 L 429.5 -33.9 L 429.5 -33.9 Q 433.7 -33.9 436.2 -43.6 L 436.2 -43.6 L 436.2 -43.6 Q 436.9 -46.5 437.5 -49.6 Z" fill="#000000"></path></g></g><style>text {
  font-size: 64px;
  font-family: Arial Black;
  dominant-baseline: central;
  text-anchor: middle;
}</style></svg>